<!--Generator: Adobe Illustrator 23.0.6, SVG Export Plug-In . SVG Version: 6.00 Build 0)--><svg xmlns="http://www.w3.org/2000/svg" xmlns:xlink="http://www.w3.org/1999/xlink" viewBox="0 0 2588.2 2588.2"><style>.st0{display:none}.st1,.st2{display:inline}.st2{fill:none;stroke:#000;stroke-width:56.6929;stroke-linejoin:round;stroke-miterlimit:10}</style><g id="Layer_1" class="st0"><g class="st1"><path d="M2002.8 928.1h-59.5c122.1-47.4 208.6-166 208.6-304.8 0-180.5-146.4-326.9-327-326.9s-327 146.3-327 326.9c0 138.8 86.5 257.3 208.6 304.8H1676c-46.6 0-192.3 32.1-326.9 193.9 23.1 154 3.6 256.6-27.7 315.8 113.6 63.1 171.8 149.6 171.8 149.6h969.7c-.2-498-460.1-659.3-460.1-659.3z"/><path d="M1103.5 1485.9c68.9-68.9 111.6-164.5 111.5-269.6 0-210.7-170.7-381.5-381.4-381.5s-381.3 170.8-381.4 381.5c0 105.1 42.7 200.6 111.5 269.6-260.1 111.3-441.2 377.4-441.3 686.3v60h1422.1v-60c.1-309-180.9-575-441-686.3zM665.8 1576l42.2-13.1v-115.2l-25.3-17.9c-66.9-47.6-110.4-125.2-110.4-213.5.3-144.4 117.1-261.2 261.4-261.5 144.3.3 261.1 117.1 261.4 261.5 0 82.2-37.7 155.2-97 203.3l-22.2 18V1567l40.6 13.9c218.3 74.5 382.7 280.6 405.5 531.3H245.3c23.3-256.4 194.8-466.2 420.5-536.2z"/></g><path class="st2" d="M277.1 1518.5s21.4-48.3 41.5-68.4c26.6-26.6 65.7-38.8 65.7-38.8s-36.1-15.3-65.3-44.5c-20.4-20.4-41.9-62.7-41.9-62.7s-20.7 37.7-46.1 63.1-61.1 44.1-61.1 44.1 48.4 28.2 66.2 46c27.3 27.3 41 61.2 41 61.2zM2292.7 982s21.4-48.3 41.5-68.4c26.6-26.6 65.7-38.8 65.7-38.8s-36.1-15.3-65.3-44.5c-20.4-20.4-41.9-62.7-41.9-62.7s-20.7 37.7-46.1 63.1c-25.4 25.4-61.1 44.1-61.1 44.1s48.4 28.2 66.2 46c27.3 27.2 41 61.2 41 61.2z"/><path class="st1" d="M1657.9 744.1h340.7v253.1h-340.7z"/></g><path d="M2276.2 923.1h-445.8l100.7-425.4c11.5-48.7-18.6-97.6-67.4-109.2-48.7-11.5-97.6 18.6-109.2 67.4l-110.6 467.2h-401.2l101.9-430.4c11.5-48.7-18.6-97.6-67.4-109.2-48.7-11.5-97.6 18.6-109.2 67.4l-111.8 472.2H627.7c-50.1 0-90.7 40.6-90.7 90.7s40.6 90.7 90.7 90.7h385.6l-81.7 344.8H485c-50.1 0-90.7 40.6-90.7 90.7s40.6 90.7 90.7 90.7h403.7l-108.4 457.9c-11.5 48.7 18.6 97.6 67.4 109.2 7 1.7 14.1 2.5 21 2.5 41.1 0 78.3-28.1 88.2-69.8l118.3-499.7h401.2l-109.6 462.8c-11.5 48.7 18.6 97.6 67.4 109.2 7 1.7 14.1 2.5 21 2.5 41.1 0 78.3-28.1 88.2-69.8l119.5-504.6h470.7c50.1 0 90.7-40.6 90.7-90.7s-40.6-90.7-90.7-90.7h-427.8l81.7-344.8h488.8c50.1 0 90.7-40.6 90.7-90.7s-40.7-90.9-90.8-90.9zm-756.9 526.2h-401.2l81.7-344.8H1601l-81.7 344.8z" id="Layer_2"/><g id="Layer_3" class="st0"><g class="st1"><defs><path id="SVGID_1_" d="M998 1191.6l33.2-48.8C930.5 1067.5 865.6 948 865.5 812.7c0-113.8 46-216.4 120.6-291 74.7-74.6 177.3-120.5 291.1-120.6 113.9 0 216.4 46 291.1 120.6 74.6 74.7 120.6 177.2 120.6 291 0 127-57.3 240.1-147.7 315.9l-2.6 2.2-249.2 261.5-258.2-249.5-35.9 48.1-41.7 43.1 339.3 328.7 330.4-346.6-43.4-41.4 38.5 46c116.5-97.3 190.7-244.2 190.7-407.9 0-293.6-238.1-531.6-531.7-531.6-293.7 0-531.7 238-531.7 531.6 0 174.3 84.2 329.5 213.9 426.2l35.9-48.1-41.7 43.1 41.7-43.1 2.5.7z"/></defs><use xlink:href="#SVGID_1_" overflow="visible"/><clipPath id="SVGID_2_"><use xlink:href="#SVGID_1_" overflow="visible"/></clipPath><defs><path id="SVGID_3_" d="M807.7 1477.6L662 1971.8c-9.4 31.8 8.8 65.1 40.6 74.5 31.8 9.4 65.1-8.8 74.5-40.6l145.7-494.1c9.4-31.8-8.8-65.1-40.6-74.5-31.8-9.4-65.2 8.7-74.5 40.5"/></defs><use xlink:href="#SVGID_3_" overflow="visible"/><clipPath id="SVGID_4_"><use xlink:href="#SVGID_3_" overflow="visible"/></clipPath><defs><path id="SVGID_5_" d="M1621.9 1511.7l145.9 493.9c9.4 31.8 42.8 49.9 74.5 40.5 31.8-9.4 49.9-42.8 40.5-74.5L1737 1477.7c-9.4-31.8-42.8-49.9-74.5-40.5-31.8 9.4-50 42.8-40.6 74.5"/></defs><use xlink:href="#SVGID_5_" overflow="visible"/><clipPath id="SVGID_6_"><use xlink:href="#SVGID_5_" overflow="visible"/></clipPath><g><defs><path id="SVGID_7_" d="M507.8 1837h1530.9c33.1 0 60-26.9 60-60s-26.9-60-60-60H507.8c-33.1 0-60 26.9-60 60 0 33.2 26.9 60 60 60"/></defs><use xlink:href="#SVGID_7_" overflow="visible"/><clipPath id="SVGID_8_"><use xlink:href="#SVGID_7_" overflow="visible"/></clipPath></g><g><defs><path id="SVGID_9_" d="M1232 1680.2v302.5c0 33.1 26.9 60 60 60s60-26.9 60-60v-302.5c0-33.1-26.9-60-60-60-33.2 0-60 26.9-60 60"/></defs><use xlink:href="#SVGID_9_" overflow="visible"/><clipPath id="SVGID_10_"><use xlink:href="#SVGID_9_" overflow="visible"/></clipPath></g><circle cx="1279.9" cy="837.4" r="148.9"/><g><defs><path id="SVGID_11_" d="M772.6 1196.8H391.9c-26.8 0-50.5 17.9-57.7 43.7L56.9 2222.4c-5.1 18.1-1.5 37.5 9.9 52.5s29 23.8 47.8 23.8h2349.7c18.8 0 36.5-8.8 47.9-23.8 11.4-15 15-34.5 9.8-52.6l-279.6-981.9c-7.3-25.8-30.9-43.6-57.7-43.6h-397.2c-33.1 0-60 26.9-60 60s26.9 60 60 60h351.9l245.4 861.9H194l243.4-861.9h335.2c33.1 0 60-26.9 60-60 0-33.2-26.9-60-60-60z"/></defs><use xlink:href="#SVGID_11_" overflow="visible"/><clipPath id="SVGID_12_"><use xlink:href="#SVGID_11_" overflow="visible"/></clipPath></g></g></g><g id="Layer_5" class="st0"><g class="st1"><path d="M2018.6 1647.5c-33.7 0-60.9 27.3-60.9 60.9v408.8l-73.6 92.5H934.6V394h965l58.1 79v265c0 33.7 27.3 60.9 60.9 60.9 33.7 0 60.9-27.3 60.9-60.9V453c0-13-4.1-25.6-11.8-36.1l-88.2-120c-11.5-15.6-29.7-24.9-49.1-24.9H625c-18.8 0-36.5 8.6-48 23.4L474 427.3c-8.4 10.7-12.9 23.9-12.9 37.5v1671.9c0 13.4 4.4 26.5 12.6 37.1l103 134c11.5 15 29.4 23.8 48.3 23.8h1288.5c18.6 0 36.1-8.5 47.7-23l105.2-132.2c8.6-10.8 13.3-24.2 13.3-37.9v-430.1c-.1-33.6-27.4-60.9-61.1-60.9zM582.9 2116V485.8l71.7-91.8h158v1815.8H655l-72.1-93.8z"/><path d="M2103.4 901.3h-854.8c-63.3 0-115.1 51.8-115.1 115.1v424.4c0 63.3 51.8 115.1 115.1 115.1h33.9v124.3c0 52.6 64.2 78.4 100.6 40.3l160.2-164.5h560.2c63.3 0 115.1-51.8 115.1-115.1v-424.4c-.1-63.4-51.9-115.2-115.2-115.2zm-254.3 313.3l-53.6 52.3c-6.3 6.2-9.2 15-7.7 23.7l12.7 73.8c3.8 21.9-19.2 38.6-38.9 28.3l-66.3-34.8c-7.8-4.1-17.1-4.1-25 0l-66.3 34.8c-19.7 10.3-42.7-6.4-38.9-28.3l12.7-73.8c1.5-8.7-1.4-17.6-7.7-23.7l-53.6-52.3c-15.9-15.5-7.1-42.5 14.9-45.7l74.1-10.8c8.7-1.3 16.3-6.8 20.2-14.7l33.1-67.2c9.8-19.9 38.3-19.9 48.1 0l33.1 67.2c3.9 7.9 11.5 13.4 20.2 14.7l74.1 10.8c21.9 3.2 30.7 30.2 14.8 45.7z"/></g></g></svg>